{"title":"Conception 2011 VODRip XViD DTRG","uid":7068400,"size":1348499172,"categoryP":"video","categoryS":"movies","magnet":"?xt=urn:btih:5956cdbc34392981e10cccb18969ed5fca1ca064&amp;dn=Conception+2011+VODRip+XViD+DTRG&amp;tr=udp%3A%2F%2Ftracker.openbittorrent.com%3A80&amp;tr=udp%3A%2F%2Fopen.demonii.com%3A1337&amp;tr=udp%3A%2F%2Ftracker.coppersurfer.tk%3A6969&amp;tr=udp%3A%2F%2Fexodus.desync.com%3A6969","seeders":3,"leechers":0,"uploader":"MScope40","files":-1,"time":1330591133,"description":"\nFormat : AVI\nFormat/Info : Audio Video Interleave\nFile size : 1.24 GiB\nDuration : 1h 26mn\nOverall bit rate : 2 052 Kbps\nWriting library : VirtualDub build 32842/release\n\nVideo\nID : 0\nFormat : MPEG-4 Visual\nFormat profile : Advanced Simple@L5\nFormat settings, BVOP : 2\nFormat settings, QPel : No\nFormat settings, GMC : No warppoints\nFormat settings, Matrix : Default (H.263)\nMuxing mode : Packed bitstream\nCodec ID : XVID\nCodec ID/Hint : XviD\nDuration : 1h 26mn\nBit rate : 1 785 Kbps\nWidth : 624 pixels\nHeight : 292 pixels\nDisplay aspect ratio : 2.2:1\nFrame rate : 29.970 fps\nColor space : YUV\nChroma subsampling : 4:2:0\nBit depth : 8 bits\nScan type : Progressive\nCompression mode : Lossy\nBits/(Pixel*Frame) : 0.327\nStream size : 1.08 GiB (87%)\nWriting library : XviD 64\n\nAudio\nID : 1\nFormat : AC-3\nFormat/Info : Audio Coding 3\nMode extension : CM (complete main)\nCodec ID : 2000\nDuration : 1h 26mn\nBit rate mode : Constant\nBit rate : 256 Kbps\nChannel(s) : 2 channels\nChannel positions : Front: L R\nSampling rate : 48.0 KHz\nBit depth : 16 bits\nCompression mode : Lossy\nStream size : 158 MiB (12%)\nAlignment : Aligned on interleaves\nInterleave, duration : 33 ms (1.00 video frame)\nInterleave, preload duration : 512 ms\n\n\n\n\n\n\n\n\n\n &lt;a href=&quot;\nhttp://www.imdb.com/title/tt1619277/&quot; rel=&quot;nofollow&quot; target=&quot;_NEW&quot;&gt;\nhttp://www.imdb.com/title/tt1619277/&lt;/a&gt;\n\n\n\n\n\nRatings: 5.9/10 from 36 users \nReviews: 9 user | 4 critic\n\nA comedy that follows nine very different couples on the night they conceive, showing that sex can sometimes be more neurotic than erotic.\nDirector:\nJosh Stolberg\nWriter:\nJosh Stolberg\nStars:\nSarah Hyland, Steve Howey and Alan Tudyk \n\n\n\n\n\n\n\nSource Used\n\n\n\nHOKNOWS ......Thanks\n &lt;a href=&quot;\nhttp://i.imgur.com/R8pZ5.png&quot; rel=&quot;nofollow&quot; target=&quot;_NEW&quot;&gt;\nhttp://i.imgur.com/R8pZ5.png&lt;/a&gt;\n &lt;a href=&quot;\nhttp://i.imgur.com/jPnFg.png&quot; rel=&quot;nofollow&quot; target=&quot;_NEW&quot;&gt;\nhttp://i.imgur.com/jPnFg.png&lt;/a&gt;","torrent":{"xt":"urn:btih:5956cdbc34392981e10cccb18969ed5fca1ca064","amp;dn":"Conception+2011+VODRip+XViD+DTRG","amp;tr":["udp%3A%2F%2Ftracker.openbittorrent.com%3A80","udp%3A%2F%2Fopen.demonii.com%3A1337","udp%3A%2F%2Ftracker.coppersurfer.tk%3A6969","udp%3A%2F%2Fexodus.desync.com%3A6969"],"infoHash":"5956cdbc34392981e10cccb18969ed5fca1ca064","infoHashBuffer":{"type":"Buffer","data":[89,86,205,188,52,57,41,129,225,12,204,177,137,105,237,95,202,28,160,100]},"announce":[],"urlList":[]}}